<svg xmlns="http://www.w3.org/2000/svg" width="36.899" height="25.944" viewBox="0 0 36.899 25.944"><g transform="translate(0 -76)"><g transform="translate(0 87.531)"><path d="M35.457,236H1.441a1.441,1.441,0,0,0,0,2.883H35.457a1.441,1.441,0,0,0,0-2.883Z" transform="translate(0 -236)" fill="#fff"/></g><g transform="translate(0 76)"><path d="M35.457,76H1.441a1.441,1.441,0,0,0,0,2.883H35.457a1.441,1.441,0,0,0,0-2.883Z" transform="translate(0 -76)" fill="#fff"/></g><g transform="translate(0 99.062)"><path d="M35.457,396H1.441a1.441,1.441,0,1,0,0,2.883H35.457a1.441,1.441,0,1,0,0-2.883Z" transform="translate(0 -396)" fill="#fff"/></g></g></svg>